 <svg  version="1.0" xmlns="http://www.w3.org/2000/svg"  width="300.000000pt" height="300.000000pt" viewBox="0 0 300.000000 300.000000"  preserveAspectRatio="xMidYMid meet">  <g transform="translate(0.000000,300.000000) scale(0.100000,-0.100000)" fill="#17bb0b" stroke="none"> <path d="M1987 2803 c-2 -5 -5 -34 -6 -67 -1 -51 -5 -61 -29 -80 -15 -11 -51 -43 -79 -70 l-53 -49 0 -74 c0 -55 3 -74 13 -71 7 3 13 29 15 71 l3 66 79 71 80 72 0 69 c0 60 -9 86 -23 62z"/> <path d="M798 2767 c-5 -10 -8 -76 -8 -146 l0 -127 44 -43 c55 -54 76 -37 22 18 -35 36 -36 39 -37 116 -2 115 -12 204 -21 182z"/> <path d="M515 2760 c-5 -8 -10 -28 -10 -45 -1 -16 -9 -42 -19 -57 -24 -36 -15 -75 20 -84 51 -13 87 59 45 88 -14 10 -21 28 -23 64 -2 36 -6 45 -13 34z"/> <path d="M958 2760 c-13 -26 -26 -144 -18 -160 18 -34 69 -73 86 -66 15 6 12 11 -19 39 -36 32 -37 33 -39 117 -2 47 -6 78 -10 70z"/> <path d="M1641 2753 c-5 -10 -9 -74 -10 -143 l-1 -125 -40 -38 c-38 -36 -40 -41 -40 -96 0 -38 5 -63 14 -70 21 -17 27 0 21 59 -5 50 -4 54 35 96 l41 44 -2 145 c0 80 -2 145 -4 145 -3 0 -8 -8 -14 -17z"/> <path d="M2423 2691 l6 -78 -37 -36 c-30 -29 -42 -34 -65 -30 -54 11 -85 -46 -51 -95 32 -46 112 -13 102 42 -4 19 5 34 39 67 25 26 41 49 38 59 -2 8 -5 45 -6 83 -2 52 -5 67 -17 67 -12 0 -14 -13 -9 -79z m-78 -201 c0 -8 -10 -16 -22 -18 -18 -3 -23 2 -23 18 0 16 5 21 23 18 12 -2 22 -10 22 -18z"/> <path d="M1099 2753 c-4 -28 2 -267 7 -274 3 -5 10 -9 16 -9 7 0 8 35 4 108 -3 59 -5 124 -6 145 0 20 -4 37 -10 37 -5 0 -10 -3 -11 -7z"/> <path d="M1397 2745 c-4 -8 -7 -118 -8 -245 l-1 -231 56 -59 c31 -33 60 -60 65 -60 26 0 15 22 -35 72 l-55 54 0 242 c0 217 -5 272 -22 227z"/> <path d="M2636 2674 c-11 -10 -14 -22 -9 -33 4 -9 9 -56 11 -105 l4 -89 -133 -133 c-85 -85 -129 -136 -124 -144 5 -8 54 34 147 126 l139 139 -2 86 c-3 71 0 90 14 104 16 15 16 20 4 38 -19 28 -32 31 -51 11z"/> <path d="M2106 2578 c-91 -98 -96 -105 -94 -143 2 -28 8 -40 18 -40 11 0 14 9 12 36 -3 33 4 43 87 130 83 86 106 119 82 119 -5 0 -52 -46 -105 -102z"/> <path d="M1263 2614 c-3 -8 1 -22 9 -30 12 -12 17 -12 33 -1 23 17 14 47 -15 47 -11 0 -23 -7 -27 -16z"/> <path d="M255 2472 c-46 -9 -36 -22 16 -22 l54 0 133 -133 132 -132 0 -135 0 -134 63 -58 c52 -48 68 -58 102 -59 84 -4 103 1 91 20 -4 6 -27 8 -56 4 -48 -6 -49 -5 -109 52 l-61 58 0 133 0 132 -142 141 c-149 149 -145 146 -223 133z"/> <path d="M636 2423 c-4 -9 0 -23 9 -32 13 -14 17 -14 31 1 9 9 14 24 11 32 -8 21 -43 20 -51 -1z"/> <path d="M778 2263 c-10 -2 -18 -11 -18 -18 0 -12 57 -103 151 -243 16 -23 29 -45 29 -47 0 -3 37 -62 83 -132 46 -71 101 -156 123 -191 21 -34 69 -109 106 -167 l68 -105 2 -327 3 -328 169 -3 c129 -2 171 1 178 10 4 7 8 154 8 326 l0 313 30 44 c16 24 30 46 30 49 0 6 93 158 141 228 22 32 39 62 39 68 0 5 3 10 8 10 4 0 22 26 40 58 19 31 52 87 75 123 171 268 190 302 180 318 -9 14 -38 16 -192 19 l-181 2 -37 -57 c-20 -32 -36 -63 -36 -70 0 -7 -4 -13 -9 -13 -5 0 -17 -17 -26 -38 -9 -20 -27 -51 -39 -69 -13 -17 -23 -36 -23 -42 0 -6 -4 -11 -9 -11 -4 0 -19 -21 -32 -47 -13 -27 -27 -50 -30 -53 -10 -9 -93 -155 -90 -159 1 -2 -3 -8 -11 -12 -9 -6 -9 -9 -1 -9 14 0 49 44 69 85 8 17 23 44 34 60 11 17 24 40 30 53 5 12 14 22 20 22 15 0 13 -6 -20 -64 -28 -51 -29 -66 -7 -66 6 0 7 3 4 6 -7 7 39 99 59 121 9 9 14 9 24 0 10 -10 10 -8 2 9 -8 15 -8 24 0 32 5 5 8 16 6 23 -2 7 -14 -4 -27 -24 -12 -21 -27 -34 -32 -31 -6 3 -4 15 6 27 8 12 18 29 22 37 4 8 17 26 30 40 l23 25 0 -23 c0 -13 -4 -20 -10 -17 -13 8 -13 -6 0 -39 5 -14 15 -26 22 -26 8 0 9 3 3 8 -13 9 -12 29 3 65 7 16 12 33 12 38 0 5 5 8 11 6 14 -3 21 31 8 39 -5 3 -14 -8 -20 -25 -11 -32 -23 -39 -34 -21 -3 6 1 17 10 26 8 9 24 36 36 60 11 25 26 48 34 51 8 3 15 13 15 23 0 28 21 38 73 34 26 -1 46 0 43 4 -2 4 6 7 19 7 13 0 21 -3 18 -7 -2 -5 5 -8 17 -8 14 0 19 4 14 13 -6 9 -4 9 7 2 8 -6 44 -10 81 -10 64 0 74 -4 68 -30 -1 -5 -3 -18 -5 -27 -2 -9 -13 -31 -24 -47 -12 -17 -30 -44 -41 -61 -11 -16 -20 -33 -20 -38 0 -5 -7 -15 -15 -22 -8 -7 -12 -16 -9 -21 3 -5 -3 -6 -12 -2 -12 4 -15 3 -10 -5 4 -7 -4 -27 -18 -45 -15 -19 -26 -38 -26 -44 0 -6 -16 -31 -35 -56 -19 -25 -35 -50 -35 -56 0 -5 -6 -16 -14 -23 -7 -8 -20 -27 -29 -43 -10 -19 -16 -24 -17 -14 0 17 -28 34 -38 24 -3 -3 0 -5 6 -5 7 0 11 -3 10 -7 0 -5 3 -17 7 -27 6 -13 4 -21 -3 -24 -7 -2 -12 -8 -12 -14 0 -6 -22 -44 -50 -84 -27 -40 -50 -77 -50 -82 0 -21 -60 -91 -74 -86 -8 3 -17 0 -22 -7 -5 -9 -2 -10 9 -6 14 5 17 0 17 -23 0 -17 -4 -30 -10 -30 -5 0 -9 -3 -9 -7 1 -5 1 -27 0 -51 -1 -40 -3 -43 -23 -37 -20 5 -19 4 3 -9 l27 -15 -3 -213 c-2 -117 -4 -224 -4 -237 -1 -35 -16 -15 -16 21 0 23 -5 32 -20 34 -19 3 -19 2 -2 -11 15 -11 16 -17 7 -34 -12 -23 -41 -29 -36 -8 1 6 1 9 -1 5 -8 -13 -25 -9 -18 5 4 6 -1 3 -10 -8 -9 -11 -22 -18 -28 -17 -31 9 -47 10 -47 3 0 -5 -22 -8 -50 -8 -27 1 -45 4 -38 8 9 6 9 11 -1 23 -7 8 -9 21 -5 27 4 8 3 9 -4 5 -7 -4 -12 -1 -12 8 0 9 5 16 11 16 8 0 8 5 -1 15 -15 18 -5 49 12 39 9 -6 9 -3 -1 9 -8 10 -11 27 -7 42 4 16 2 25 -5 25 -6 0 -9 9 -6 23 3 12 1 31 -4 42 -5 12 -8 -32 -6 -117 1 -88 -1 -138 -8 -138 -6 0 -10 102 -10 292 l-1 293 -45 70 c-25 39 -52 81 -59 95 -7 14 -16 27 -19 30 -3 3 -19 24 -34 48 -22 33 -25 46 -17 62 14 25 13 37 -2 22 -21 -21 -35 -13 -51 26 -8 21 -22 44 -31 51 -9 8 -16 18 -16 23 0 5 -19 37 -42 71 -46 66 -63 93 -75 117 -4 8 -12 20 -17 26 -18 20 -51 67 -51 73 0 3 -9 20 -21 36 -49 71 -75 125 -61 125 8 0 22 -15 31 -32 9 -18 32 -58 51 -88 19 -30 38 -63 41 -72 3 -10 14 -20 25 -23 10 -3 16 -11 14 -18 -5 -14 33 -63 41 -54 4 3 -1 13 -10 22 -9 9 -16 23 -16 31 0 8 -7 17 -15 20 -8 4 -13 10 -10 14 3 4 -2 13 -10 20 -8 7 -15 19 -15 26 0 8 -4 14 -10 14 -5 0 -10 9 -10 19 0 10 -7 22 -16 25 -9 4 -14 9 -10 13 3 3 -1 15 -11 25 -15 17 -15 18 8 20 54 4 75 3 107 -3 32 -7 38 -3 24 16 -8 12 -62 17 -62 6 0 -9 -79 -7 -102 3 -22 10 -14 26 10 22 9 -2 40 0 69 3 29 4 50 4 47 -1 -4 -7 40 -2 73 7 6 2 14 1 17 -3 4 -3 20 -7 36 -8 31 -2 80 -46 80 -70 0 -8 5 -14 10 -14 6 0 10 -9 10 -20 0 -11 7 -23 15 -26 8 -4 15 -10 15 -15 0 -9 29 -55 66 -106 13 -18 14 -27 3 -56 -10 -30 -10 -37 7 -55 33 -35 59 -77 56 -89 -2 -10 24 -32 38 -31 19 2 49 -16 53 -32 3 -11 13 -20 22 -20 16 0 16 2 -1 28 -25 38 -184 296 -214 347 -10 17 -39 65 -65 108 l-47 77 -176 -1 c-98 -1 -185 -3 -194 -6z m561 -353 c4 -3 22 -30 41 -60 19 -30 39 -58 44 -62 14 -10 2 -20 -15 -13 -15 6 -58 65 -58 79 1 5 -3 12 -8 15 -18 13 -32 51 -26 68 7 17 8 16 11 -2 3 -11 7 -22 11 -25z m285 -1164 c3 2 2 -1 -3 -7 -10 -12 -253 -20 -246 -8 2 3 28 7 57 8 28 1 54 3 56 6 3 2 12 0 21 -5 11 -5 26 -4 42 4 14 8 33 10 45 5 12 -4 25 -6 28 -3z"/> <path d="M1036 2221 c-8 -12 16 -20 47 -17 15 2 28 -3 31 -10 3 -8 12 -14 21 -14 13 0 13 3 3 21 -9 13 -20 19 -36 16 -12 -2 -25 0 -28 4 -7 12 -31 11 -38 0z"/> <path d="M1904 2222 c-31 -2 -43 -8 -47 -21 -3 -14 0 -17 14 -14 11 3 19 0 19 -6 0 -6 4 -11 9 -11 5 0 7 8 4 18 -3 12 2 18 16 19 12 1 21 -4 21 -10 0 -8 3 -7 9 2 5 8 18 12 31 8 14 -3 20 -1 17 6 -4 12 -23 14 -93 9z"/> <path d="M2010 2211 c0 -10 10 -12 41 -7 39 6 40 5 34 -16 -5 -20 -4 -21 5 -5 6 9 18 17 27 17 12 0 13 -3 4 -13 -6 -8 -8 -17 -4 -21 4 -4 1 -11 -6 -15 -7 -5 -11 -17 -9 -27 3 -13 11 -3 28 34 13 28 28 52 33 52 6 0 8 3 4 6 -3 4 -40 7 -81 8 -59 1 -76 -2 -76 -13z"/> <path d="M2667 2214 c-4 -4 -7 -14 -7 -21 0 -8 -30 -48 -67 -89 l-68 -74 -60 0 c-58 0 -61 -2 -113 -51 -35 -34 -51 -57 -47 -67 4 -12 18 -4 59 37 52 52 53 52 111 50 64 -3 50 -12 157 109 21 23 49 44 63 48 21 5 25 12 23 33 -3 26 -35 41 -51 25z"/> <path d="M1147 2156 c-3 -8 3 -22 13 -31 11 -10 17 -22 14 -26 -3 -5 0 -9 5 -9 6 0 10 -3 10 -7 -3 -21 2 -33 16 -33 13 0 47 -50 44 -66 -1 -8 22 -24 34 -24 8 0 -11 37 -31 58 -7 8 -19 27 -27 43 -9 16 -19 29 -23 29 -4 0 -15 18 -25 40 -19 44 -22 47 -30 26z"/> <path d="M253 2152 c-67 -7 -30 -22 52 -22 l84 0 41 -42 41 -43 -2 -133 -2 -133 74 -75 73 -74 123 0 c112 0 123 2 123 18 0 17 -9 18 -115 14 l-116 -5 -64 65 -65 65 0 136 0 136 -47 47 c-47 47 -50 48 -108 49 -33 0 -75 -1 -92 -3z"/> <path d="M1827 2154 c-3 -3 -3 -12 -1 -19 3 -7 -1 -15 -10 -17 -11 -2 -13 -7 -6 -18 12 -19 26 -5 35 33 7 25 -3 36 -18 21z"/> <path d="M2025 2012 c-11 -15 -19 -30 -18 -34 2 -4 -10 -17 -26 -31 -42 -35 -54 -62 -36 -77 12 -10 15 -9 16 6 1 11 1 22 0 27 0 4 4 7 10 7 5 0 7 5 4 10 -3 6 0 10 8 10 8 0 20 15 27 33 8 17 20 40 28 50 8 9 13 19 11 21 -2 2 -13 -8 -24 -22z"/> <path d="M292 1938 c-16 -16 -15 -33 3 -48 12 -10 18 -10 30 0 20 16 19 46 -1 54 -20 8 -18 8 -32 -6z"/> <path d="M2608 1870 c-71 -78 -74 -80 -119 -80 -44 0 -51 -4 -114 -65 -48 -47 -65 -70 -61 -82 6 -13 20 -3 74 50 63 63 70 67 112 67 43 0 48 3 120 80 62 66 81 81 110 84 19 2 38 4 43 5 4 0 7 6 7 11 0 6 -22 10 -49 10 -49 0 -50 -1 -123 -80z"/> <path d="M1006 1927 c23 -37 49 -67 60 -67 7 0 2 11 -11 25 -14 13 -25 28 -25 33 0 6 -7 13 -16 16 -10 4 -13 2 -8 -7z"/> <path d="M1910 1843 c-8 -16 -16 -32 -19 -38 -3 -5 7 1 22 15 15 14 27 31 27 38 0 21 -16 13 -30 -15z"/> <path d="M1076 1825 c4 -8 10 -15 16 -15 5 0 6 -5 2 -12 -4 -6 -3 -8 4 -4 5 3 12 2 14 -4 2 -6 8 -6 18 0 13 9 13 10 0 10 -9 0 -22 9 -30 20 -17 23 -32 27 -24 5z"/> <path d="M2151 1776 c-14 -16 -4 -46 14 -46 8 0 21 7 30 16 12 12 13 19 4 30 -15 18 -33 18 -48 0z"/> <path d="M1565 1720 c-20 -33 -41 -60 -46 -60 -5 0 -9 -5 -9 -12 0 -16 78 61 86 85 3 11 12 16 20 13 18 -7 18 2 0 20 -13 12 -19 6 -51 -46z"/> <path d="M1127 1740 c19 -32 28 -37 39 -18 4 7 3 8 -4 4 -8 -4 -16 3 -22 18 -5 14 -14 26 -20 26 -7 0 -4 -13 7 -30z"/> <path d="M1804 1673 c-4 -16 -11 -33 -16 -40 -6 -7 -8 -18 -5 -25 4 -8 6 -7 6 5 1 9 4 17 9 17 10 0 41 57 34 64 -12 13 -22 5 -28 -21z"/> <path d="M2724 1683 c-44 -3 -56 -9 -89 -43 -33 -34 -40 -37 -61 -28 -55 25 -103 -36 -70 -87 31 -47 106 -25 106 30 0 38 79 99 137 105 26 3 48 11 51 18 2 6 -2 11 -10 10 -7 -1 -36 -3 -64 -5z m-144 -128 c0 -8 -6 -15 -12 -18 -21 -7 -38 4 -38 23 0 10 6 20 13 23 15 5 37 -11 37 -28z"/> <path d="M1188 1654 c-2 -10 5 -28 15 -39 37 -42 44 -50 50 -67 4 -10 13 -18 21 -18 8 0 18 -5 22 -12 5 -8 2 -9 -9 -5 -10 3 -17 3 -17 -2 0 -5 10 -11 23 -15 18 -5 20 -8 7 -16 -12 -8 -11 -10 6 -10 12 0 21 6 21 15 0 8 -6 15 -13 15 -7 0 -11 8 -9 20 3 16 -2 20 -23 20 -16 0 -22 3 -15 8 13 8 2 34 -13 33 -5 0 -8 6 -8 14 1 8 -4 11 -15 7 -14 -5 -14 -4 -1 14 8 10 10 16 5 11 -4 -4 -16 5 -26 19 -15 23 -17 24 -21 8z"/> <path d="M354 1569 c-17 -19 -27 -21 -82 -16 -34 2 -65 1 -67 -3 -8 -14 8 -19 69 -22 50 -3 61 -7 78 -30 23 -33 59 -37 88 -8 25 25 26 62 2 83 -25 23 -65 21 -88 -4z m69 -45 c-7 -18 -39 -18 -47 1 -7 19 24 37 41 24 6 -6 9 -17 6 -25z"/> <path d="M2007 1552 c-33 -37 -12 -102 33 -102 29 0 50 11 50 26 0 11 19 14 88 14 l88 0 122 -125 122 -124 0 -93 0 -94 49 -48 50 -49 88 7 c48 4 92 12 98 17 11 11 7 11 -95 9 -73 -1 -76 0 -118 35 l-42 37 0 96 0 97 -133 133 -132 132 -82 0 c-74 0 -84 2 -107 25 -30 30 -57 32 -79 7z m58 -47 c0 -30 -39 -27 -43 3 -3 20 0 23 20 20 15 -2 23 -10 23 -23z"/> <path d="M1720 1531 c0 -5 -10 -7 -22 -4 -23 5 -23 5 -3 -10 20 -16 20 -16 -1 -17 -15 0 -21 -6 -20 -17 0 -10 -5 -17 -12 -15 -8 1 -11 -2 -7 -8 3 -6 11 -8 16 -5 5 4 9 1 9 -4 0 -6 -5 -11 -11 -11 -5 0 -7 -5 -3 -11 9 -16 34 30 26 50 -3 8 -1 12 4 8 6 -3 18 7 28 24 9 16 12 29 7 29 -6 0 -11 -4 -11 -9z"/> <path d="M844 1482 l-160 -2 -104 -105 -103 -105 -101 0 c-114 0 -178 -8 -170 -21 3 -5 69 -9 146 -9 l141 0 101 105 101 105 164 2 c111 2 166 7 168 14 6 18 -11 19 -183 16z"/> <path d="M1362 1335 c-1 -24 3 -47 8 -50 9 -5 12 8 9 31 0 4 5 11 13 15 10 7 10 9 1 9 -7 0 -13 9 -13 20 0 41 -18 18 -18 -25z"/> <path d="M714 1209 l-112 -111 -87 -4 -88 -3 -59 -58 -59 -58 3 -137 3 -137 -39 -40 c-23 -23 -34 -41 -27 -45 6 -4 29 11 51 33 l40 39 0 139 0 139 48 47 48 47 87 3 86 2 116 114 c102 101 132 141 107 141 -4 0 -57 -50 -118 -111z"/> <path d="M979 1284 c-10 -12 -10 -20 -2 -34 8 -11 12 -89 14 -209 l2 -192 -107 -109 -107 -108 2 -169 c2 -181 6 -233 20 -233 5 0 9 89 9 197 l0 198 106 106 107 107 1 226 c1 180 -2 227 -12 231 -18 7 -18 7 -33 -11z"/> <path d="M1894 1285 c-12 -31 4 -48 39 -41 17 4 66 9 107 12 l75 5 92 -89 93 -89 -1 -117 -2 -117 39 -41 39 -40 195 7 c107 4 197 9 199 11 15 13 -30 17 -197 15 l-188 -2 -27 30 c-26 30 -27 35 -27 149 l0 117 -99 99 -99 98 -95 -6 c-59 -4 -98 -2 -102 4 -9 15 -35 12 -41 -5z"/> <path d="M2697 1284 c-4 -4 -7 -18 -7 -31 0 -20 5 -24 23 -21 16 2 22 10 22 28 0 24 -23 39 -38 24z"/> <path d="M1156 1204 c-3 -9 -6 -145 -6 -303 l0 -288 80 -83 80 -83 2 -91 c0 -50 2 -95 3 -101 2 -5 3 -16 4 -22 0 -7 6 -13 11 -13 12 0 13 157 1 219 -7 37 -20 54 -80 108 l-71 65 0 299 c0 269 -6 340 -24 293z"/> <path d="M1360 1106 c0 -25 5 -46 10 -46 6 0 10 18 10 39 0 22 -4 43 -10 46 -6 4 -10 -12 -10 -39z"/> <path d="M1619 1121 c9 -6 11 -16 5 -32 -13 -40 -13 -53 -1 -68 10 -12 9 -14 -6 -8 -11 4 -16 3 -12 -4 4 -6 -1 -17 -11 -25 -15 -12 -13 -12 14 1 27 13 32 21 30 45 -1 17 -7 30 -12 30 -6 0 -5 5 2 12 19 19 15 58 -5 58 -14 0 -15 -2 -4 -9z"/> <path d="M1840 1073 c0 -15 1 -15 136 -14 l100 1 36 -38 36 -37 -1 -163 -1 -162 60 -61 59 -60 1 -112 c2 -168 3 -175 14 -157 5 8 10 76 10 150 l0 134 -57 58 -57 58 2 163 2 162 -39 41 -40 42 -130 4 c-102 3 -131 1 -131 -9z"/> <path d="M810 1032 c-42 -13 -67 -70 -39 -87 5 -4 9 -11 7 -15 -2 -5 -121 -128 -265 -273 -237 -238 -280 -287 -255 -287 4 0 131 124 282 275 182 182 282 275 295 275 28 0 45 19 45 50 0 36 -41 72 -70 62z m30 -57 c0 -19 -20 -29 -32 -17 -15 15 -2 43 17 36 8 -3 15 -12 15 -19z"/> <path d="M536 854 c-10 -26 19 -52 42 -38 9 6 17 20 17 30 0 26 -50 32 -59 8z"/> <path d="M1919 834 c-11 -14 -10 -21 4 -46 13 -22 17 -53 17 -121 l0 -91 65 -66 66 -66 0 -94 c0 -52 3 -98 6 -103 13 -22 23 25 23 113 l0 96 -65 64 -65 64 0 101 c0 64 4 105 12 113 9 9 7 16 -7 32 -22 24 -38 25 -56 4z"/> <path d="M2477 572 c-37 -41 -1 -109 51 -97 23 5 35 -2 77 -45 95 -97 118 -89 28 10 -45 49 -57 69 -55 90 6 53 -65 82 -101 42z m60 -23 c16 -16 5 -39 -17 -39 -20 0 -30 17 -22 38 5 15 24 16 39 1z"/> <path d="M1667 518 c-8 -22 5 -268 14 -268 10 0 11 17 11 90 -1 25 -1 78 -1 118 -1 65 -11 92 -24 60z"/> <path d="M1484 506 c-9 -24 1 -99 14 -104 9 -3 12 13 12 57 0 57 -13 81 -26 47z"/> <path d="M987 493 c-12 -12 -7 -50 8 -63 32 -27 82 23 55 55 -13 15 -51 20 -63 8z"/> <path d="M553 454 c-3 -8 -1 -25 6 -37 6 -12 12 -49 13 -81 2 -40 8 -61 17 -64 11 -4 12 8 7 61 -5 45 -4 71 5 85 7 11 9 27 6 36 -8 20 -46 21 -54 0z"/> <path d="M1834 406 c-9 -24 4 -48 23 -44 24 4 24 52 0 56 -9 2 -20 -4 -23 -12z"/> </g> </svg> 